<svg width="38" height="40" viewBox="0 0 38 40" fill="none" xmlns="http://www.w3.org/2000/svg">
<path d="M12.0768 18.0428L7.16268 15.5578C6.02106 14.9805 5.45024 14.6918 5.02911 14.944C5.01885 14.9502 5.00871 14.9565 4.9987 14.9631C4.5878 15.2321 4.5878 15.8783 4.5878 17.1707C4.5878 17.9592 4.5878 18.3534 4.77503 18.6746C4.77989 18.683 4.78484 18.6913 4.78988 18.6995C4.98381 19.0166 5.32854 19.1996 6.01801 19.5657L12.1067 22.7987C15.4678 24.5833 17.1483 25.4756 18.9683 25.5269C19.0637 25.5296 19.1591 25.5305 19.2546 25.5297C21.0751 25.5138 22.7723 24.6544 26.1666 22.9354C27.2855 22.3688 27.8449 22.0855 28.2613 22.3238C28.2817 22.3355 28.3017 22.348 28.3211 22.3613C28.7178 22.6319 28.7178 23.2654 28.7178 24.5325V24.7223C28.7178 25.5447 28.7178 25.9559 28.516 26.2862C28.3141 26.6164 27.9508 26.7998 27.2241 27.1666L26.1231 27.7222C22.6775 29.4611 20.9547 30.3306 19.1025 30.3298C17.2502 30.3291 15.528 29.4582 12.0838 27.7165L7.18812 25.2408C6.02258 24.6514 5.43982 24.3567 5.01381 24.6236C4.5878 24.8904 4.5878 25.5502 4.5878 26.8697V27.1546C4.5878 27.9763 4.5878 28.3871 4.78934 28.7172C4.99089 29.0473 5.3538 29.2308 6.07962 29.5979L12.0868 32.6356C15.5278 34.3757 17.2483 35.2457 19.0988 35.2473L19.1061 35.2473C20.9565 35.2471 22.6777 34.3784 26.12 32.6408C27.2839 32.0534 27.8658 31.7596 28.2913 32.0257L28.2928 32.0267C28.7178 32.2937 28.7178 32.9523 28.7178 34.2695V34.3925C28.7178 35.2149 28.7178 35.6261 28.516 35.9563C28.3141 36.2866 27.9508 36.47 27.2241 36.8367L26.1231 37.3923C22.6775 39.1313 20.9547 40.0007 19.1025 40C17.2502 39.9993 15.5281 39.1284 12.0838 37.3867L7.79675 35.2188C4.47006 33.5365 2.80671 32.6954 1.88297 31.1825C0.959229 29.6696 0.959229 27.7865 0.959229 24.0204V15.9778C0.959229 12.2117 0.959229 10.3287 1.88297 8.81576C2.80671 7.30288 4.47006 6.46174 7.79675 4.77947L12.0768 2.61508C15.5244 0.871697 17.2482 0 19.1021 0C20.956 0 22.6798 0.871693 26.1273 2.61508L30.4074 4.77947C33.7341 6.46174 35.3975 7.30288 36.3212 8.81576C37.2449 10.3287 37.2449 12.2117 37.2449 15.9778L37.2449 30.5229C37.2449 31.6178 37.2449 32.1652 36.9124 32.3157C36.5798 32.4662 36.1772 32.1009 35.372 31.3704L34.5564 30.6304C34.4577 30.5409 34.4084 30.4962 34.3545 30.506C34.3005 30.5158 34.2696 30.5751 34.2078 30.6937L33.5561 31.9441C32.7137 33.5603 32.2925 34.3685 31.8658 34.2614C31.4392 34.1544 31.4392 33.2405 31.4392 31.4129V17.5645C31.4392 16.5749 31.4392 16.0801 31.1197 15.8799C30.8002 15.6798 30.3631 15.9008 29.489 16.3429L26.1273 18.0428C22.6798 19.7862 20.956 20.6579 19.1021 20.6579C17.2482 20.6579 15.5244 19.7862 12.0768 18.0428Z" fill="#ACE6FF"/>
</svg>
